<?xml version="1.0" encoding="utf-8"?>
<!-- Generator: Adobe Illustrator 15.0.2, SVG Export Plug-In . SVG Version: 6.00 Build 0)  -->
<!DOCTYPE svg PUBLIC "-//W3C//DTD SVG 1.1//EN" "http://www.w3.org/Graphics/SVG/1.1/DTD/svg11.dtd">
<svg version="1.1"
	 id="svg9493" inkscape:export-xdpi="90.000000" inkscape:version="0.42" sodipodi:docbase="/datas/Projs/Cliparts Stocker/led" sodipodi:version="0.32" sodipodi:docname="led_circle_green.svg" inkscape:export-ydpi="90.000000" inkscape:export-filename="/datas/Projs/Cliparts Stocker/led/led_circle_green.png" xmlns:svg="http://www.w3.org/2000/svg" xmlns:sodipodi="http://inkscape.sourceforge.net/DTD/sodipodi-0.dtd" xmlns:inkscape="http://www.inkscape.org/namespaces/inkscape" xmlns:rdf="http://www.w3.org/1999/02/22-rdf-syntax-ns#" xmlns:dc="http://purl.org/dc/elements/1.1/" xmlns:cc="http://web.resource.org/cc/"
	 xmlns="http://www.w3.org/2000/svg" xmlns:xlink="http://www.w3.org/1999/xlink" x="0px" y="0px" width="50px" height="50px"
	 viewBox="0 0 50 50" enable-background="new 0 0 50 50" xml:space="preserve">
<sodipodi:namedview  bordercolor="#666666" borderopacity="1.0" id="base" inkscape:cy="25.000000" inkscape:current-layer="layer1" pagecolor="#ffffff" inkscape:cx="25.000000" inkscape:document-units="px" inkscape:pageopacity="0.0" inkscape:pageshadow="2" inkscape:window-height="693" inkscape:window-width="1024" inkscape:window-x="0" inkscape:window-y="25" inkscape:zoom="10.480000">
	</sodipodi:namedview>
<linearGradient id="path7424_1_" gradientUnits="userSpaceOnUse" x1="-863.9868" y1="93.1299" x2="-863.9806" y2="94.5444" gradientTransform="matrix(31.25 0 0 31.25 27024.5 -2907)">
	<stop  offset="0" style="stop-color:#ADADAD"/>
	<stop  offset="1" style="stop-color:#F0F0F0"/>
</linearGradient>
<path id="path7424" fill="url(#path7424_1_)" d="M47.5,25c0,12.42-10.08,22.5-22.5,22.5C12.581,47.5,2.5,37.42,2.5,25
	C2.5,12.581,12.581,2.5,25,2.5C37.42,2.5,47.5,12.581,47.5,25z"/>
<linearGradient id="path7426_1_" gradientUnits="userSpaceOnUse" x1="-866.5767" y1="89.543" x2="-866.4857" y2="90.4863" gradientTransform="matrix(33.8273 0 0 33.8273 29337.2559 -3021.6035)">
	<stop  offset="0" style="stop-color:#828282"/>
	<stop  offset="1" style="stop-color:#929292;stop-opacity:0.3529"/>
</linearGradient>
<path id="path7426" fill="url(#path7426_1_)" d="M45.176,25c0,11.137-9.039,20.176-20.176,20.176
	C13.863,45.176,4.824,36.137,4.824,25C4.824,13.863,13.863,4.824,25,4.824C36.137,4.824,45.176,13.863,45.176,25z"/>
<linearGradient id="path7428_1_" gradientUnits="userSpaceOnUse" x1="-862.7563" y1="94.9951" x2="-862.769" y2="96.1331" gradientTransform="matrix(30.2835 0 0 30.2835 26152.4727 -2868.165)">
	<stop  offset="0" style="stop-color:#004C00"/>
	<stop  offset="1" style="stop-color:#A3FF87"/>
</linearGradient>
<path id="path7428" fill="url(#path7428_1_)" d="M43.062,25c0,9.971-8.092,18.062-18.062,18.062C15.03,43.062,6.938,34.97,6.938,25
	S15.03,6.938,25,6.938C34.971,6.938,43.062,15.03,43.062,25z"/>
</svg>
