<?xml version="1.0" encoding="utf-8"?>
<!-- Generator: Adobe Illustrator 15.0.2, SVG Export Plug-In . SVG Version: 6.00 Build 0)  -->
<!DOCTYPE svg PUBLIC "-//W3C//DTD SVG 1.1//EN" "http://www.w3.org/Graphics/SVG/1.1/DTD/svg11.dtd">
<svg version="1.1" id="Calque_1" xmlns="http://www.w3.org/2000/svg" xmlns:xlink="http://www.w3.org/1999/xlink" x="0px" y="0px"
	 width="512px" height="512px" viewBox="-0.5 -28.5 512 512" enable-background="new -0.5 -28.5 512 512" xml:space="preserve">
<g>
	<linearGradient id="SVGID_1_" gradientUnits="userSpaceOnUse" x1="26.5125" y1="422.9685" x2="340.7431" y2="26.1322">
		<stop  offset="0.0245" style="stop-color:#1A1A1A"/>
		<stop  offset="0.088" style="stop-color:#202020"/>
		<stop  offset="0.7051" style="stop-color:#5C5C5C"/>
		<stop  offset="1" style="stop-color:#737373"/>
	</linearGradient>
	<path fill="url(#SVGID_1_)" d="M488.507,128.473c-51.56-22.746-104.289-44.676-162.648-65.769
		C267.885,41.612,204.281,21.358,139.877,1.966C102.181,26.91,59.875,51.223,15.285,74.922c-5.797,3.103-9.113,8.513-9.102,14.328
		c11.602,122.692,18.53,246.052,30.244,370.028c7.076,0.455,14.157,0.91,21.241,1.365C41.261,335.406,43.081,210.749,31.504,86.721
		c26.881,25.033,52.768,50.481,76.222,76.332c127.744,19.627,241.964,40.978,360.2,64.003
		C497.879,203.26,505.361,160.046,488.507,128.473z M108.495,134.166c0.048,0.342,0.096,0.685,0.143,1.027
		c-0.092-0.386-0.171-0.771-0.26-1.158c-17.511-19.57-36.288-38.918-55.595-58.041c26.355-14.259,51.94-28.738,76.207-43.442
		c-15.966,22.051-24.712,48.62-23.987,75.916c0.222,8.503,1.403,16.984,3.375,25.567
		C108.417,134.079,108.456,134.122,108.495,134.166z"/>
</g>
<g>
	<linearGradient id="SVGID_2_" gradientUnits="userSpaceOnUse" x1="261.6018" y1="56.4167" x2="235.6749" y2="170.2419">
		<stop  offset="0" style="stop-color:#FFFFFF"/>
		<stop  offset="0.0132" style="stop-color:#FCF8F8"/>
		<stop  offset="0.1503" style="stop-color:#E3B4B4"/>
		<stop  offset="0.2802" style="stop-color:#CE7B7B"/>
		<stop  offset="0.3991" style="stop-color:#BE4E4E"/>
		<stop  offset="0.5049" style="stop-color:#B22E2E"/>
		<stop  offset="0.5936" style="stop-color:#AB1B1B"/>
		<stop  offset="0.6545" style="stop-color:#A81414"/>
		<stop  offset="0.7403" style="stop-color:#A51414"/>
		<stop  offset="0.7942" style="stop-color:#9D1313"/>
		<stop  offset="0.8392" style="stop-color:#8E1111"/>
		<stop  offset="0.8794" style="stop-color:#790E0E"/>
		<stop  offset="0.9164" style="stop-color:#5F0B0B"/>
		<stop  offset="0.951" style="stop-color:#3E0707"/>
		<stop  offset="0.9831" style="stop-color:#170303"/>
		<stop  offset="1" style="stop-color:#000000"/>
	</linearGradient>
	<path fill="url(#SVGID_2_)" d="M251.396,52.326c-22.253,19.743-39.809,46.638-37.928,75.006c0.603,13.92,3.825,27.936,10.797,41.25
		c14.116,3.713,29.168,7.579,43.909,11.597c-9.275-13.942-13.697-29.196-12.719-44.725c1.929-26.688,16.835-51.808,37.386-69.555
		C280.332,61.087,266.25,56.561,251.396,52.326z"/>
</g>
<g>
	<linearGradient id="SVGID_3_" gradientUnits="userSpaceOnUse" x1="169.6077" y1="19.4099" x2="141.5945" y2="154.9342">
		<stop  offset="0" style="stop-color:#FFFFFF"/>
		<stop  offset="0.0132" style="stop-color:#FCF8F8"/>
		<stop  offset="0.1503" style="stop-color:#E3B4B4"/>
		<stop  offset="0.2802" style="stop-color:#CE7B7B"/>
		<stop  offset="0.3991" style="stop-color:#BE4E4E"/>
		<stop  offset="0.5049" style="stop-color:#B22E2E"/>
		<stop  offset="0.5936" style="stop-color:#AB1B1B"/>
		<stop  offset="0.6545" style="stop-color:#A81414"/>
		<stop  offset="0.7403" style="stop-color:#A51414"/>
		<stop  offset="0.7942" style="stop-color:#9D1313"/>
		<stop  offset="0.8392" style="stop-color:#8E1111"/>
		<stop  offset="0.8794" style="stop-color:#790E0E"/>
		<stop  offset="0.9164" style="stop-color:#5F0B0B"/>
		<stop  offset="0.951" style="stop-color:#3E0707"/>
		<stop  offset="0.9831" style="stop-color:#170303"/>
		<stop  offset="1" style="stop-color:#000000"/>
	</linearGradient>
	<path fill="url(#SVGID_3_)" d="M171.233,161.911c-8.824-15.49-12.007-31.763-11.231-48.167
		c1.865-31.906,17.983-62.345,41.607-85.522c-11.972-4.379-25.258-8.506-39.152-12.378c-24.498,24.983-43.522,56.225-41.442,89.021
		c0.594,15.568,3.666,31.12,10.613,46.29C144.446,154.618,157.916,158.205,171.233,161.911z"/>
</g>
<g>
	<linearGradient id="SVGID_4_" gradientUnits="userSpaceOnUse" x1="354.6077" y1="94.0735" x2="336.0462" y2="191.3634">
		<stop  offset="0" style="stop-color:#FFFFFF"/>
		<stop  offset="0.0132" style="stop-color:#FCF8F8"/>
		<stop  offset="0.1503" style="stop-color:#E3B4B4"/>
		<stop  offset="0.2802" style="stop-color:#CE7B7B"/>
		<stop  offset="0.3991" style="stop-color:#BE4E4E"/>
		<stop  offset="0.5049" style="stop-color:#B22E2E"/>
		<stop  offset="0.5936" style="stop-color:#AB1B1B"/>
		<stop  offset="0.6545" style="stop-color:#A81414"/>
		<stop  offset="0.7403" style="stop-color:#A51414"/>
		<stop  offset="0.7942" style="stop-color:#9D1313"/>
		<stop  offset="0.8392" style="stop-color:#8E1111"/>
		<stop  offset="0.8794" style="stop-color:#790E0E"/>
		<stop  offset="0.9164" style="stop-color:#5F0B0B"/>
		<stop  offset="0.951" style="stop-color:#3E0707"/>
		<stop  offset="0.9831" style="stop-color:#170303"/>
		<stop  offset="1" style="stop-color:#000000"/>
	</linearGradient>
	<path fill="url(#SVGID_4_)" d="M341.389,89.512c-17.562,15.813-31.491,37.488-29.938,60.192
		c0.627,12.902,3.994,25.761,10.993,37.498c14.841,3.768,30.9,7.715,46.414,11.84c-7.567-11.833-11.382-24.765-10.462-37.873
		c1.609-21.172,12.852-41.451,28.107-56.364C373.123,99.345,357.737,94.243,341.389,89.512z"/>
</g>
<g>
	<linearGradient id="SVGID_5_" gradientUnits="userSpaceOnUse" x1="446.2649" y1="131.1477" x2="431.5131" y2="208.7568">
		<stop  offset="0" style="stop-color:#FFFFFF"/>
		<stop  offset="0.0132" style="stop-color:#FCF8F8"/>
		<stop  offset="0.1503" style="stop-color:#E3B4B4"/>
		<stop  offset="0.2802" style="stop-color:#CE7B7B"/>
		<stop  offset="0.3991" style="stop-color:#BE4E4E"/>
		<stop  offset="0.5049" style="stop-color:#B22E2E"/>
		<stop  offset="0.5936" style="stop-color:#AB1B1B"/>
		<stop  offset="0.6545" style="stop-color:#A81414"/>
		<stop  offset="0.7403" style="stop-color:#A51414"/>
		<stop  offset="0.7942" style="stop-color:#9D1313"/>
		<stop  offset="0.8392" style="stop-color:#8E1111"/>
		<stop  offset="0.8794" style="stop-color:#790E0E"/>
		<stop  offset="0.9164" style="stop-color:#5F0B0B"/>
		<stop  offset="0.951" style="stop-color:#3E0707"/>
		<stop  offset="0.9831" style="stop-color:#170303"/>
		<stop  offset="1" style="stop-color:#000000"/>
	</linearGradient>
	<path fill="url(#SVGID_5_)" d="M420.851,205.611c-7.336-9.439-10.881-20.524-11.506-31.776
		c-1.218-18.387,11.546-35.603,27.495-46.043c13.729,4.036,26.492,8.369,37.621,12.991c-11.622,13.359-20.48,30.276-21.681,47.894
		c-0.516,8.822,1.45,17.823,5.738,26.391C445.937,211.78,432.926,208.627,420.851,205.611z"/>
</g>
<g>
	<linearGradient id="SVGID_6_" gradientUnits="userSpaceOnUse" x1="207.9124" y1="35.8142" x2="206.7027" y2="165.8213">
		<stop  offset="0" style="stop-color:#FFFFFF"/>
		<stop  offset="0.1704" style="stop-color:#FCFCFC"/>
		<stop  offset="0.3018" style="stop-color:#F2F2F2"/>
		<stop  offset="0.4202" style="stop-color:#E2E2E2"/>
		<stop  offset="0.531" style="stop-color:#CACACA"/>
		<stop  offset="0.6364" style="stop-color:#ACACAC"/>
		<stop  offset="0.7379" style="stop-color:#888888"/>
		<stop  offset="0.8361" style="stop-color:#5C5C5C"/>
		<stop  offset="0.9294" style="stop-color:#2B2B2B"/>
		<stop  offset="1" style="stop-color:#000000"/>
	</linearGradient>
	<path fill="url(#SVGID_6_)" d="M211.883,168.772c-7.069-14.068-9.816-28.906-9.212-43.874
		c1.516-29.026,19.842-58.429,39.867-79.599c-9.728-3.631-20.434-7.065-31.625-10.301c-19.553,21.705-40.087,51.054-38.316,81.048
		c0.531,14.268,4.164,30.565,9.702,44.468C191.922,163.188,201.928,165.941,211.883,168.772z"/>
</g>
<g>
	<linearGradient id="SVGID_7_" gradientUnits="userSpaceOnUse" x1="298.7405" y1="73.9768" x2="299.2858" y2="184.2692">
		<stop  offset="0" style="stop-color:#FFFFFF"/>
		<stop  offset="0.1704" style="stop-color:#FCFCFC"/>
		<stop  offset="0.3018" style="stop-color:#F2F2F2"/>
		<stop  offset="0.4202" style="stop-color:#E2E2E2"/>
		<stop  offset="0.531" style="stop-color:#CACACA"/>
		<stop  offset="0.6364" style="stop-color:#ACACAC"/>
		<stop  offset="0.7379" style="stop-color:#888888"/>
		<stop  offset="0.8361" style="stop-color:#5C5C5C"/>
		<stop  offset="0.9294" style="stop-color:#2B2B2B"/>
		<stop  offset="1" style="stop-color:#000000"/>
	</linearGradient>
	<path fill="url(#SVGID_7_)" d="M298.667,71.415c-22.612,19.679-34.356,37.175-34.597,65.611
		c-0.15,13.814,5.252,27.942,12.342,41.363c11.533,3.21,23.726,6.544,35.67,9.998c-8.203-14.262-12.32-25.295-10.557-40.611
		c3.314-26.85,10.906-39.711,32.25-64.635C323.141,78.99,311.225,75.08,298.667,71.415z"/>
</g>
<g>
	<linearGradient id="SVGID_8_" gradientUnits="userSpaceOnUse" x1="398.4631" y1="112.303" x2="399.127" y2="202.4436">
		<stop  offset="0" style="stop-color:#FFFFFF"/>
		<stop  offset="0.1704" style="stop-color:#FCFCFC"/>
		<stop  offset="0.3018" style="stop-color:#F2F2F2"/>
		<stop  offset="0.4202" style="stop-color:#E2E2E2"/>
		<stop  offset="0.531" style="stop-color:#CACACA"/>
		<stop  offset="0.6364" style="stop-color:#ACACAC"/>
		<stop  offset="0.7379" style="stop-color:#888888"/>
		<stop  offset="0.8361" style="stop-color:#5C5C5C"/>
		<stop  offset="0.9294" style="stop-color:#2B2B2B"/>
		<stop  offset="1" style="stop-color:#000000"/>
	</linearGradient>
	<path fill="url(#SVGID_8_)" d="M391.232,109.688c-17.24,16.27-27.127,31.31-25.714,52.184c0.632,11.811,4.853,24.762,11.993,35.617
		c10.533,2.756,21.686,5.615,32.633,8.578c-7.813-10.79-10.976-21.7-8.925-34.376c3.318-19.583,13.466-35.478,30.744-48.222
		C419.9,118.542,405.992,113.944,391.232,109.688z"/>
</g>
</svg>
