<?xml version="1.0" encoding="utf-8"?>
<!-- Generator: Adobe Illustrator 11.0, SVG Export Plug-In  -->
<!DOCTYPE svg PUBLIC "-//W3C//DTD SVG 1.0//EN"    "http://www.w3.org/TR/2001/REC-SVG-20010904/DTD/svg10.dtd" [
	<!ENTITY ns_flows "http://ns.adobe.com/Flows/1.0/">
	<!ENTITY ns_svg "http://www.w3.org/2000/svg">
	<!ENTITY ns_xlink "http://www.w3.org/1999/xlink">
]>
<svg  xmlns="&ns_svg;" xmlns:xlink="&ns_xlink;" xmlns:a="http://ns.adobe.com/AdobeSVGViewerExtensions/3.0/"
	 width="511" height="455" viewBox="-0.024 -0.961 511 455" xml:space="preserve">
	<defs>
	</defs>
	<g>
		<path fill="#ED171F" d="M41.184,453.447C18.432,453.447,0,434.943,0,412.119c0-7.2,1.872-14.328,5.472-20.592l214.2-370.872
			c15.912-27.576,55.512-27.504,71.424,0l214.128,370.872c3.672,6.336,5.544,13.392,5.544,20.592
			c0,22.752-18.432,41.256-41.184,41.328H41.184z"/>
		<polygon fill="#FEB82F" points="255.384,53.847 458.496,405.711 52.2,405.711 "/>
		<path d="M323.928,321.183l-196.056,36.144c-15.408-12.312-19.008-34.344-8.28-50.832l182.448-74.16l66.312,37.944
			c2.88,1.656,4.608,4.68,4.752,7.992l3.456,127.512h-21.528l2.808-127.512L323.928,321.183z"/>
		<path fill="#FEB82F" d="M223.056,271.287c11.808,8.352,18.72,21.816,18.72,36.216c0,8.352-2.232,16.488-6.624,23.544l24.624-4.536
			c3.672-7.2,5.616-15.12,5.616-23.04c0-16.2-7.704-31.392-20.736-40.896L223.056,271.287z"/>
		<path fill="#FEB82F" d="M323.64,305.631c1.08-5.04,1.656-10.008,1.656-14.976c0-15.264-5.256-29.952-14.904-41.76l39.816,22.68
			l-26.496,33.48L323.64,305.631z"/>
		<path fill="#FEB82F" d="M309.96,317.295c3.6-8.208,5.472-16.992,5.472-25.848c0-18.72-8.28-36.432-22.608-48.456l-20.376,8.208
			c13.536,10.872,21.384,27.216,21.384,44.496c0,8.856-2.088,17.712-6.12,25.632L309.96,317.295z"/>
		<path fill="#FEB82F" d="M172.296,292.023c8.784,7.2,13.824,18,13.824,29.304c0,6.984-1.872,13.824-5.544,19.8l25.992-4.752
			c3.744-6.336,5.76-13.608,5.76-20.952c0-12.96-6.12-25.2-16.488-32.976L172.296,292.023z"/>
		<path fill="#FEB82F" d="M132.192,349.983c1.944-4.392,2.88-9.144,2.88-13.824c0-9.36-3.744-18.36-10.44-24.912l19.656-7.992
			c9.288,4.968,15.048,14.616,15.048,25.128c0,6.408-2.16,12.672-6.12,17.712L132.192,349.983z"/>
	</g>
</svg>
